<svg xmlns="http://www.w3.org/2000/svg" width="1083.735" height="1035.971" viewBox="0 0 1083.735 1035.971">
    <defs>
        <style>.a{opacity:1;}.b{fill:#fff;}.c{fill:#ff4848;}.d{fill:#47c8fb;}</style>
    </defs>
    <g class="a" transform="translate(-939.655 45.735) rotate(-8)">
        <path class="b" d="M1563.647,256.937,1671.109,240l145.238,103.554,108.765,184.314,10.419,136.119-78.805,236.417-289.172-87.924-82.713,20.841-58.615,20.841L1322.672,927.11l95.089-134.816,106.159-67.083,259.863-5.862,5.862-205.806-42.986-111.37-138.724-127-44.288-18.236" transform="translate(-20.163 -17)" />
        <path class="b" d="M1278.022,693l-154.941,75.354L928.347,947l7.62,115.147,140.151,9.675-24.329-69.477L1168.6,803.957Z" transform="translate(-83.442 46.886)" />
        <g transform="translate(1013.392 259.676)">
            <path class="b" d="M1080.9,1081.12l88.9-89.747s39.792-26.247,46.566-33.021,40.641-65.193,50.8-77.893S1462.748,552.8,1462.748,552.8s5.081-11.007,0-22.86-7.313-13.834-7.313-13.834l-63.849-41.4s-20.7-15.787-24.734-22.978-20.172-35.608-19.293-45.607,9.3-9.122,9.3-9.122l-3.332-17.015,56.131-111.736,15.26,9.472s6.491,12.98,4.911,22.1-2.982,13.507-4.911,17.541-48.413,93.669-48.413,93.669a14.826,14.826,0,0,0-2.279,11.928,29.48,29.48,0,0,0,6.84,11.752l24.382,17.892-8.945-23.681,13.33-5.964,13.683-32.451,9.12,13.331-2.1-18.944,12.629-2.631,7.718,40.7L1440,435.589l.876,10-4.034,14.384,29.117,10.174,14.209-2.806-17.54-65.253s7.894,5.262,11.225,12.454,12.1,34.907,12.1,34.907l22.978-8.069,5.789-13.682,21.048,7.016,9.649,29.995,5.788-15.261-11.929-60.867-63.848-50.518s-1.4,8.244-1.58,8.244-11.225-12.8-11.225-12.8l-9.65-2.807-8.068-44.379,194.355,124.366s4.034,5.788,2.1,9.823-11.051,9.647-11.051,9.647l4.561,12.63,10.876,6.665-6.49,16.489s1.4,7.718,5.612,3.684,23.5-40.345,23.5-40.345l-23.5-15.611,3.157-5.438,16.841,10.349,57.183-19.471,31.924,6.49-7.016,5.087L1769.6,420.5l14.208,25.083-24.908,7.192-35.259-19.821-14.383-23.681-15.436,5.438s-9.473,4.561-8.945,10.7,3.859,15.787,3.859,15.787l33.328,21.4,37.888-6.841,27.188,10.174-73.848,129.628-38.766,11.226-64.9-26.838-8.6,16.489,18.242-4.035,6.315,3.158,7.718-1.754,3.685,11.226s-15.611-.527-20.873,0-28.768-1.93-37.363-5.964-50.518-38.59-50.518-38.59L1341.512,875.073s-25.636,44.122-31.168,52.758-22.94,26.851-27.257,29.82-94.276,93.453-94.276,93.453l-32.1,34.205s-8.946,12.63-18.769,21.224-27.891,11.051-31.224,11.051S1080.9,1081.12,1080.9,1081.12Z" transform="translate(-1080.899 -257.158)" />
            <path class="b" d="M1443.866,258.207l57.807,13.1s94.8,51.64,95.957,51.64,116,75.919,116,75.919-14.645,1.156-25.821-1.542-44.7-24.664-46.245-28.9a8.116,8.116,0,0,0-5.228-5.134s-49.771-16.744-58.665-21.76S1443.866,258.207,1443.866,258.207Z" transform="translate(-1042.985 -258.207)" />
        </g>
        <path class="c" d="M879.957,1206.091s38.99,23.265,46.744,25.2,13.356,3.447,13.356,3.447l7.755-22.834,58.161,13.571,44.159-13.571,13.14-22.834-35.328,17.017h-52.56l-28.865-8.616-16.156,14.433Z" transform="matrix(0.99, 0.139, -0.139, 0.99, 767.16, -760.228)" />
        <path class="c" d="M861.334,1213.913c1.42,3.313-45.433,2.84-45.433,2.84l-5.206,10.885,31.235,8.046-12.3,16.091H802.176l-13.725,26.976,24.61-6.152,5.206-7.1,7.572,2.366L810.7,1293.421l-22.243,8.519-4.259,44.96,20.823-10.412,10.885-8.519L861.334,1224.8S859.914,1210.6,861.334,1213.913Z" transform="matrix(0.99, 0.139, -0.139, 0.99, 765.752, -757.397)" />
        <path class="c" d="M1029.3,1185.567l38.145-9.229,25.225-65.215-33.223,31.992H1040.37l-52.3,36.3Z" transform="matrix(0.99, 0.139, -0.139, 0.99, 766.603, -756.267)" />
        <path class="c" d="M767.776,1340.058l16.758,41.169,7.97-16.05h6.944l-26.575,60.068-13.47,35.313-57.52,31.672,9.829-26.211,39.864-10.042,5.278-34.736-14.926-5.1L732.1,1435.8l-2.28-12.139,13.356-38.344,6.247,9.909-4.581,11.417,20.737,7.539,14-27.142-22.725-28.055Z" transform="matrix(0.99, 0.139, -0.139, 0.99, 766.603, -756.267)" />
        <path class="d" d="M819,1172.279c-10.555-14.217-36.566-19.333-36.566-19.333l2.817-11.931,49.583,14.219,31.288-14.123,45.571,18.641,77.424-24.867,13.725,8.992-48.4,21.509-28.169,31.98-44.039-6.785-26.763-14.655-4.682,16.744-20.374-3.373S824.515,1175.756,819,1172.279Z" transform="matrix(0.99, 0.139, -0.139, 0.99, 768.723, -756.979)" />
        <path class="c" d="M717.539,948.709,680.77,1051.735l5.1,18.931-1.82,13.834,10.921-8.373,17.11-73.9,12.014-34.949Z" transform="matrix(0.99, 0.139, -0.139, 0.99, 766.603, -756.267)" />
        <path class="d" d="M848.087,1005.21,938.48,1047.8l3.786,42.12v18.457L913.4,1061.055l-47.8-34.548Z" transform="matrix(0.99, 0.139, -0.139, 0.99, 766.603, -756.267)" />
        <path class="c" d="M845.066,928.431l89.827,32.1,34.251,13.786H934.894L898.273,961.6,871.347,946.1l-49.976-19.6Z" transform="matrix(0.99, 0.139, -0.139, 0.99, 766.603, -756.267)" />
    </g>
</svg>